<svg width="470" height="135" 
xmlns="http://www.w3.org/2000/svg" 
xmlns:xlink="http://www.w3.org/1999/xlink" 
xmlns:svg="http://www.w3.org/2000/svg">

<rect x="0" y="0" width="150" height="100" fill="#ddd" />
<rect x="160" y="0" width="150" height="100" fill="#ddd" />
<rect x="320" y="0" width="150" height="100" fill="#ddd" />

<line x1="0" y1="50" x2="150" y2="50" style="stroke:#08F;stroke-width:1" />
<line x1="160" y1="50" x2="310" y2="50" style="stroke:#08F;stroke-width:1" />
<line x1="320" y1="50" x2="470" y2="50" style="stroke:#08F;stroke-width:1" />

<polyline points="0,60 20,60 20,40 40,40 40,60 60,60 60,40 80,40 80,60 100,60 100,40 120,40 120,60 140,60 140,40 150,40" style="fill:none;stroke:red;stroke-width:1" />
<text x="10" y="110" fill="black" style="font-size:10px;">0 sent 20 times, 
<tspan x="10" y="120">20 sent 20 times,</tspan>
<tspan x="10" y="130">repeat</tspan>
<tspan x="10" y="10">[0,20,20,20]</tspan></text>

<polyline points="160,60 200,60 200,40 240,40 240,60 280,60 280,40 310,40" style="fill:none;stroke:red;stroke-width:1" />
<text x="170" y="110" fill="black" style="font-size:10px;">0 sent 40 times, 
<tspan x="170" y="120">20 sent 40 times,</tspan>
<tspan x="170" y="130">repeat</tspan>
<tspan x="170" y="10">[0,40,20,40]</tspan></text>

<polyline points="320,80 330,80 330,20,340,20,340,80,350,80,350,20,360,20,360,80,370,80,370,20,380,20,380,80
390,80,390,20,400,20,400,80,410,80,410,20,420,20,420,80,430,80,430,20,440,20,440,80,450,80,450,20,460,20,
460,80,470,80,470,20" style="fill:none;stroke:red;stroke-width:1" />
<text x="330" y="110" fill="black" style="font-size:10px;">0 sent 20 times, 
<tspan x="330" y="120">60 sent 20 times,</tspan>
<tspan x="330" y="130">repeat</tspan>
<tspan x="330" y="10">[0,20,60,20]</tspan></text>

</svg>
